<svg xmlns="http://www.w3.org/2000/svg" viewBox="0 0 505 360" width="505" height="360" role="img"><title>MapleVitals — Canadian public-health intelligence</title><path d="M70.0,185.0 L175.9,185.0 L190.5,185.0 L198.5,162.0 L206.5,185.0 L227.0,185.0 L236.5,203.7 L252.5,113.0 L270.8,208.0 L283.9,185.0 L309.1,185.0 L319.0,164.8 L329.2,185.0 L342.0,185.0 L435.1,185.0" fill="none" stroke="#F7F5F0" stroke-width="13" stroke-linecap="round" stroke-linejoin="round"/><line x1="252.5" y1="113.0" x2="252.5" y2="107.0" stroke="#F7F5F0" stroke-width="13" stroke-linecap="round"/><g transform="translate(252.5,107.0) scale(0.2300) translate(-256.0,-381.26)"><path d="M 78.70967742076999,252.12903226063997 L 58.11612903372895,258.941935486428 L 153.18709677540699,342.55483871200795 C 160.46451613022595,363.7677419377569 150.70967742057496,370.11612903451396 144.51612903349496,381.26451613125795 L 247.63870967837704,368.25806451839 L 261.8838709686609,368.412903228067 L 365.1612903232199,380.800000002227 C 358.8129032264628,367.32903226032806 353.08387096841386,360.206451615186 358.9677419361399,338.68387097008303 L 453.88387096814097,259.71612903481304 L 437.31612903270195,253.52258064773304 C 423.6903225811259,242.99354838969703 443.20000000042796,203.04516129303101 445.987096774614,177.80645161568003 C 445.987096774614,177.80645161568003 390.709677419925,196.85161290595107 387.148387097354,186.78709677694604 L 372.90322580706993,159.69032258347102 L 322.42580645236796,215.12258064783703 C 317.006451613673,216.51612903493003 314.683870968518,214.348387099452 313.290322581425,209.703225809142 L 336.51612903297496,93.883870970746 L 299.66451612984895,114.63225806746401 Q 294.709677420185,116.64516129326502 291.612903226645,111.22580645457005 L 256.00000000093496,40.00000000315005 L 219.45806451716294,114.012903228756 Q 215.12258064620693,117.883870970681 211.71612903331294,115.09677419649499 L 176.25806451728,95.432258067516 L 197.47096774302895,210.16774193817298 C 195.7677419365819,214.81290322848298 191.74193548498,216.051612905899 187.09677419467,213.57419355106697 L 138.787096775446,158.916129035086 C 132.593548388366,168.98064516409102 128.25806451741,185.39354838985298 119.89677419485201,189.10967742210102 C 111.53548387229404,192.82580645434905 83.50967742075704,182.141935486636 64.77419354984005,178.27096774471102 C 71.27741935627404,201.18709677690703 91.09677419493005,239.58709677680298 78.70967742077005,252.12903226064003" fill="#C8402E"/></g><path transform="translate(70.00,272.00) scale(0.06200,-0.06200)" d="M91 0V700H228L483 285L393 286L651 700H782V0H635V240Q635 330 639.5 402.0Q644 474 655 545L673 498L468 180H402L201 496L218 545Q229 478 233.5 407.5Q238 337 238 240V0Z" fill="#F7F5F0"/><path transform="translate(124.13,272.00) scale(0.06200,-0.06200)" d="M269 -10Q203 -10 150.0 26.0Q97 62 66.0 124.0Q35 186 35 266Q35 346 66.5 408.0Q98 470 152.0 505.0Q206 540 275 540Q314 540 346.5 528.5Q379 517 403.5 497.0Q428 477 445.0 451.0Q462 425 469 395L439 400V529H580V0H437V127L469 130Q461 102 443.0 77.0Q425 52 398.5 32.5Q372 13 339.0 1.5Q306 -10 269 -10ZM308 113Q348 113 378.0 132.0Q408 151 424.5 185.5Q441 220 441 266Q441 311 424.5 345.0Q408 379 378.0 398.5Q348 418 308 418Q269 418 239.5 398.5Q210 379 193.0 345.0Q176 311 176 266Q176 220 193.0 185.5Q210 151 239.5 132.0Q269 113 308 113Z" fill="#F7F5F0"/><path transform="translate(164.49,272.00) scale(0.06200,-0.06200)" d="M71 -220V529H208L212 410L186 419Q193 451 220.5 478.0Q248 505 289.0 522.0Q330 539 375 539Q444 539 498.0 503.5Q552 468 583.0 406.5Q614 345 614 265Q614 186 583.0 124.0Q552 62 498.0 26.5Q444 -9 375 -9Q329 -9 287.5 8.5Q246 26 217.5 55.0Q189 84 181 117L214 131V-220ZM343 113Q382 113 412.0 132.0Q442 151 459.0 185.5Q476 220 476 265Q476 310 459.0 344.0Q442 378 412.5 397.0Q383 416 343 416Q303 416 273.0 397.5Q243 379 226.0 344.5Q209 310 209 265Q209 220 226.0 185.5Q243 151 273.0 132.0Q303 113 343 113Z" fill="#F7F5F0"/><path transform="translate(204.79,272.00) scale(0.06200,-0.06200)" d="M72 0V740H214V0Z" fill="#F7F5F0"/><path transform="translate(222.58,272.00) scale(0.06200,-0.06200)" d="M322 -10Q236 -10 171.5 25.0Q107 60 71.5 121.0Q36 182 36 261Q36 323 56.0 374.0Q76 425 112.0 462.5Q148 500 197.5 520.5Q247 541 305 541Q359 541 405.0 521.0Q451 501 484.5 465.5Q518 430 536.0 381.5Q554 333 552 277L551 233H126L103 320H434L418 302V324Q416 351 400.5 372.5Q385 394 361.0 406.5Q337 419 307 419Q263 419 232.5 402.0Q202 385 186.0 352.0Q170 319 170 272Q170 224 190.5 189.0Q211 154 248.5 134.5Q286 115 337 115Q372 115 401.0 126.0Q430 137 463 164L531 69Q502 43 467.0 25.5Q432 8 395.0 -1.0Q358 -10 322 -10Z" fill="#F7F5F0"/><path transform="translate(258.91,272.00) scale(0.06200,-0.06200)" d="M290 0 11 700H170L316 321Q328 290 336.5 266.5Q345 243 351.5 222.5Q358 202 364.0 182.5Q370 163 376 140L347 139Q355 170 362.5 196.5Q370 223 380.5 252.5Q391 282 406 321L544 700H702L421 0Z" fill="#C8402E"/><path transform="translate(303.12,272.00) scale(0.06200,-0.06200)" d="M83 0V529H225V0ZM153 637Q112 637 89.0 657.5Q66 678 66 715Q66 749 89.5 770.5Q113 792 153 792Q194 792 217.0 771.5Q240 751 240 715Q240 681 216.5 659.0Q193 637 153 637Z" fill="#C8402E"/><path transform="translate(322.09,272.00) scale(0.06200,-0.06200)" d="M122 0V663H264V0ZM23 402V529H373V402Z" fill="#C8402E"/><path transform="translate(346.52,272.00) scale(0.06200,-0.06200)" d="M269 -10Q203 -10 150.0 26.0Q97 62 66.0 124.0Q35 186 35 266Q35 346 66.5 408.0Q98 470 152.0 505.0Q206 540 275 540Q314 540 346.5 528.5Q379 517 403.5 497.0Q428 477 445.0 451.0Q462 425 469 395L439 400V529H580V0H437V127L469 130Q461 102 443.0 77.0Q425 52 398.5 32.5Q372 13 339.0 1.5Q306 -10 269 -10ZM308 113Q348 113 378.0 132.0Q408 151 424.5 185.5Q441 220 441 266Q441 311 424.5 345.0Q408 379 378.0 398.5Q348 418 308 418Q269 418 239.5 398.5Q210 379 193.0 345.0Q176 311 176 266Q176 220 193.0 185.5Q210 151 239.5 132.0Q269 113 308 113Z" fill="#C8402E"/><path transform="translate(386.88,272.00) scale(0.06200,-0.06200)" d="M72 0V740H214V0Z" fill="#C8402E"/><path transform="translate(404.68,272.00) scale(0.06200,-0.06200)" d="M249 -10Q175 -10 117.5 14.5Q60 39 25 82L114 158Q144 125 182.0 110.5Q220 96 258 96Q273 96 285.5 99.5Q298 103 307.0 109.5Q316 116 320.5 125.5Q325 135 325 146Q325 168 307 180Q297 186 276.0 193.5Q255 201 222 210Q171 223 135.5 240.5Q100 258 79 280Q61 301 51.5 325.5Q42 350 42 380Q42 416 58.0 445.5Q74 475 102.5 496.0Q131 517 168.0 528.5Q205 540 246 540Q287 540 326.0 530.0Q365 520 398.5 501.5Q432 483 457 458L381 374Q363 391 340.5 405.0Q318 419 294.0 427.0Q270 435 251 435Q234 435 220.5 432.0Q207 429 198.0 422.5Q189 416 184.5 407.0Q180 398 180 387Q180 376 185.5 366.0Q191 356 201 349Q212 343 233.5 335.0Q255 327 292 317Q340 304 373.5 288.0Q407 272 427 251Q444 233 452.0 210.0Q460 187 460 159Q460 110 432.5 72.0Q405 34 357.0 12.0Q309 -10 249 -10Z" fill="#C8402E"/><path transform="translate(81.45,322.00) scale(0.01650,-0.01650)" d="M391 -10Q315 -10 252.0 16.0Q189 42 143.0 90.5Q97 139 71.5 205.5Q46 272 46 351Q46 427 73.0 492.0Q100 557 148.0 606.0Q196 655 260.0 682.0Q324 709 399 709Q450 709 498.0 694.0Q546 679 586.0 652.5Q626 626 653 591L570 500Q544 527 516.5 545.5Q489 564 459.5 573.5Q430 583 399 583Q353 583 312.5 566.0Q272 549 242.5 518.0Q213 487 196.0 444.5Q179 402 179 350Q179 297 195.5 254.0Q212 211 242.5 180.0Q273 149 315.5 132.5Q358 116 409 116Q442 116 473.0 125.0Q504 134 530.5 150.5Q557 167 579 189L643 86Q619 59 579.0 37.0Q539 15 489.5 2.5Q440 -10 391 -10Z" fill="#F7F5F0"/><path transform="translate(94.24,322.00) scale(0.01650,-0.01650)" d="M271 -10Q206 -10 153.0 26.0Q100 62 68.0 124.0Q36 186 36 265Q36 344 68.0 406.0Q100 468 155.0 503.0Q210 538 279 538Q319 538 352.0 526.5Q385 515 410.0 494.0Q435 473 451.5 446.0Q468 419 474 388L447 395V527H571V0H446V126L475 131Q468 104 449.5 78.5Q431 53 403.5 33.5Q376 14 342.5 2.0Q309 -10 271 -10ZM305 99Q348 99 381.0 120.0Q414 141 432.5 178.5Q451 216 451 265Q451 313 432.5 350.0Q414 387 381.0 408.0Q348 429 305 429Q262 429 229.5 408.0Q197 387 179.0 350.0Q161 313 161 265Q161 216 179.0 178.5Q197 141 229.5 120.0Q262 99 305 99Z" fill="#F7F5F0"/><path transform="translate(106.33,322.00) scale(0.01650,-0.01650)" d="M72 0V527H192L194 419L171 407Q181 443 210.0 472.5Q239 502 279.0 520.0Q319 538 361 538Q421 538 461.5 514.0Q502 490 522.5 442.0Q543 394 543 322V0H420V313Q420 353 409.0 379.5Q398 406 375.0 418.5Q352 431 319 430Q292 430 269.5 421.5Q247 413 230.5 397.5Q214 382 204.5 362.0Q195 342 195 318V0H134Q116 0 100.5 0.0Q85 0 72 0Z" fill="#F7F5F0"/><path transform="translate(117.88,322.00) scale(0.01650,-0.01650)" d="M271 -10Q206 -10 153.0 26.0Q100 62 68.0 124.0Q36 186 36 265Q36 344 68.0 406.0Q100 468 155.0 503.0Q210 538 279 538Q319 538 352.0 526.5Q385 515 410.0 494.0Q435 473 451.5 446.0Q468 419 474 388L447 395V527H571V0H446V126L475 131Q468 104 449.5 78.5Q431 53 403.5 33.5Q376 14 342.5 2.0Q309 -10 271 -10ZM305 99Q348 99 381.0 120.0Q414 141 432.5 178.5Q451 216 451 265Q451 313 432.5 350.0Q414 387 381.0 408.0Q348 429 305 429Q262 429 229.5 408.0Q197 387 179.0 350.0Q161 313 161 265Q161 216 179.0 178.5Q197 141 229.5 120.0Q262 99 305 99Z" fill="#F7F5F0"/><path transform="translate(129.97,322.00) scale(0.01650,-0.01650)" d="M284 -10Q214 -10 158.5 25.5Q103 61 70.5 122.5Q38 184 38 264Q38 343 70.0 405.0Q102 467 157.5 502.5Q213 538 283 538Q321 538 356.5 526.0Q392 514 420.0 493.5Q448 473 464.5 448.0Q481 423 483 396L450 392V740H573V0H454L451 124L475 122Q474 97 457.5 74.0Q441 51 415.0 32.0Q389 13 354.5 1.5Q320 -10 284 -10ZM308 94Q351 94 384.0 116.0Q417 138 435.5 176.0Q454 214 454 264Q454 313 435.5 351.5Q417 390 384.0 411.5Q351 433 308 433Q265 433 232.0 411.5Q199 390 180.5 351.5Q162 313 162 264Q162 214 180.5 176.0Q199 138 232.0 116.0Q265 94 308 94Z" fill="#F7F5F0"/><path transform="translate(142.05,322.00) scale(0.01650,-0.01650)" d="M86 0V527H209V0ZM146 639Q109 639 88.5 657.5Q68 676 68 710Q68 742 89.0 762.0Q110 782 146 782Q184 782 204.5 763.5Q225 745 225 710Q225 679 204.0 659.0Q183 639 146 639Z" fill="#F7F5F0"/><path transform="translate(148.38,322.00) scale(0.01650,-0.01650)" d="M271 -10Q206 -10 153.0 26.0Q100 62 68.0 124.0Q36 186 36 265Q36 344 68.0 406.0Q100 468 155.0 503.0Q210 538 279 538Q319 538 352.0 526.5Q385 515 410.0 494.0Q435 473 451.5 446.0Q468 419 474 388L447 395V527H571V0H446V126L475 131Q468 104 449.5 78.5Q431 53 403.5 33.5Q376 14 342.5 2.0Q309 -10 271 -10ZM305 99Q348 99 381.0 120.0Q414 141 432.5 178.5Q451 216 451 265Q451 313 432.5 350.0Q414 387 381.0 408.0Q348 429 305 429Q262 429 229.5 408.0Q197 387 179.0 350.0Q161 313 161 265Q161 216 179.0 178.5Q197 141 229.5 120.0Q262 99 305 99Z" fill="#F7F5F0"/><path transform="translate(160.47,322.00) scale(0.01650,-0.01650)" d="M72 0V527H192L194 419L171 407Q181 443 210.0 472.5Q239 502 279.0 520.0Q319 538 361 538Q421 538 461.5 514.0Q502 490 522.5 442.0Q543 394 543 322V0H420V313Q420 353 409.0 379.5Q398 406 375.0 418.5Q352 431 319 430Q292 430 269.5 421.5Q247 413 230.5 397.5Q214 382 204.5 362.0Q195 342 195 318V0H134Q116 0 100.5 0.0Q85 0 72 0Z" fill="#F7F5F0"/><path transform="translate(178.37,322.00) scale(0.01650,-0.01650)" d="M72 -220V527H193L195 407L174 416Q180 447 208.0 474.5Q236 502 276.5 519.0Q317 536 361 536Q431 536 485.5 501.0Q540 466 571.5 405.0Q603 344 603 264Q603 185 571.5 123.5Q540 62 485.5 26.5Q431 -9 363 -9Q317 -9 274.5 9.0Q232 27 202.5 56.0Q173 85 166 117L196 131V-220ZM338 100Q380 100 413.0 121.0Q446 142 464.5 179.0Q483 216 483 264Q483 312 465.0 348.5Q447 385 414.0 406.0Q381 427 338 427Q294 427 261.5 406.5Q229 386 210.0 349.0Q191 312 191 264Q191 216 210.0 179.0Q229 142 261.5 121.0Q294 100 338 100Z" fill="#F7F5F0"/><path transform="translate(190.45,322.00) scale(0.01650,-0.01650)" d="M255 -10Q198 -10 156.0 15.5Q114 41 92.0 88.5Q70 136 70 202V527H193V228Q193 186 206.0 156.5Q219 127 244.0 111.0Q269 95 304 95Q330 95 351.5 103.5Q373 112 389.0 127.5Q405 143 414.0 164.5Q423 186 423 211V527H546V0H426L424 110L446 122Q434 84 405.5 54.5Q377 25 338.0 7.5Q299 -10 255 -10Z" fill="#F7F5F0"/><path transform="translate(202.15,322.00) scale(0.01650,-0.01650)" d="M363 -10Q328 -10 294.5 0.5Q261 11 234.0 29.0Q207 47 189.0 69.5Q171 92 165 115L194 128L191 2H72V740H195V405L173 415Q178 439 195.5 460.5Q213 482 239.0 499.5Q265 517 296.0 527.5Q327 538 359 538Q430 538 484.5 503.0Q539 468 570.5 406.0Q602 344 602 265Q602 185 571.0 123.0Q540 61 485.5 25.5Q431 -10 363 -10ZM337 98Q379 98 412.0 119.5Q445 141 464.0 178.5Q483 216 483 265Q483 313 464.5 350.0Q446 387 413.0 408.0Q380 429 337 429Q294 429 261.0 408.0Q228 387 209.0 350.0Q190 313 190 265Q190 216 209.0 178.5Q228 141 261.0 119.5Q294 98 337 98Z" fill="#F7F5F0"/><path transform="translate(214.21,322.00) scale(0.01650,-0.01650)" d="M73 0V740H197V0Z" fill="#F7F5F0"/><path transform="translate(220.16,322.00) scale(0.01650,-0.01650)" d="M86 0V527H209V0ZM146 639Q109 639 88.5 657.5Q68 676 68 710Q68 742 89.0 762.0Q110 782 146 782Q184 782 204.5 763.5Q225 745 225 710Q225 679 204.0 659.0Q183 639 146 639Z" fill="#F7F5F0"/><path transform="translate(226.50,322.00) scale(0.01650,-0.01650)" d="M298 -10Q224 -10 165.0 26.0Q106 62 72.0 124.0Q38 186 38 264Q38 342 72.0 404.0Q106 466 165.0 502.0Q224 538 298 538Q369 538 427.0 511.0Q485 484 517 436L449 354Q434 375 411.0 392.0Q388 409 362.0 419.0Q336 429 310 429Q266 429 231.5 407.5Q197 386 177.0 348.5Q157 311 157 264Q157 217 177.5 180.0Q198 143 233.0 121.0Q268 99 311 99Q337 99 361.5 107.5Q386 116 408.0 132.0Q430 148 449 172L517 89Q483 45 423.5 17.5Q364 -10 298 -10Z" fill="#F7F5F0"/><path transform="translate(236.89,322.00) scale(0.01650,-0.01650)" d="M52 227V345H361V227Z" fill="#F7F5F0"/><path transform="translate(245.20,322.00) scale(0.01650,-0.01650)" d="M72 0V740H194V419L171 407Q181 443 210.0 472.5Q239 502 279.0 520.0Q319 538 361 538Q421 538 461.5 514.0Q502 490 522.5 442.0Q543 394 543 322V0H420V313Q420 353 409.0 379.5Q398 406 375.0 418.5Q352 431 319 430Q292 430 269.5 421.5Q247 413 230.5 397.5Q214 382 204.5 362.0Q195 342 195 318V0H134Q116 0 100.5 0.0Q85 0 72 0Z" fill="#F7F5F0"/><path transform="translate(256.75,322.00) scale(0.01650,-0.01650)" d="M319 -10Q236 -10 172.5 25.0Q109 60 73.5 120.5Q38 181 38 259Q38 321 58.0 372.0Q78 423 113.5 460.5Q149 498 198.5 518.5Q248 539 307 539Q359 539 404.0 519.0Q449 499 482.0 464.5Q515 430 532.5 382.5Q550 335 549 279L548 236H121L98 320H445L429 303V325Q426 356 409.0 379.5Q392 403 365.5 416.5Q339 430 307 430Q258 430 224.5 411.0Q191 392 174.0 356.5Q157 321 157 268Q157 217 178.5 179.0Q200 141 239.5 120.5Q279 100 332 100Q369 100 400.0 112.0Q431 124 467 155L528 70Q501 45 466.5 27.5Q432 10 394.0 0.0Q356 -10 319 -10Z" fill="#F7F5F0"/><path transform="translate(267.92,322.00) scale(0.01650,-0.01650)" d="M271 -10Q206 -10 153.0 26.0Q100 62 68.0 124.0Q36 186 36 265Q36 344 68.0 406.0Q100 468 155.0 503.0Q210 538 279 538Q319 538 352.0 526.5Q385 515 410.0 494.0Q435 473 451.5 446.0Q468 419 474 388L447 395V527H571V0H446V126L475 131Q468 104 449.5 78.5Q431 53 403.5 33.5Q376 14 342.5 2.0Q309 -10 271 -10ZM305 99Q348 99 381.0 120.0Q414 141 432.5 178.5Q451 216 451 265Q451 313 432.5 350.0Q414 387 381.0 408.0Q348 429 305 429Q262 429 229.5 408.0Q197 387 179.0 350.0Q161 313 161 265Q161 216 179.0 178.5Q197 141 229.5 120.0Q262 99 305 99Z" fill="#F7F5F0"/><path transform="translate(280.01,322.00) scale(0.01650,-0.01650)" d="M73 0V740H197V0Z" fill="#F7F5F0"/><path transform="translate(285.97,322.00) scale(0.01650,-0.01650)" d="M129 0V661H252V0ZM25 413V527H367V413Z" fill="#F7F5F0"/><path transform="translate(293.89,322.00) scale(0.01650,-0.01650)" d="M72 0V740H194V419L171 407Q181 443 210.0 472.5Q239 502 279.0 520.0Q319 538 361 538Q421 538 461.5 514.0Q502 490 522.5 442.0Q543 394 543 322V0H420V313Q420 353 409.0 379.5Q398 406 375.0 418.5Q352 431 319 430Q292 430 269.5 421.5Q247 413 230.5 397.5Q214 382 204.5 362.0Q195 342 195 318V0H134Q116 0 100.5 0.0Q85 0 72 0Z" fill="#F7F5F0"/><path transform="translate(311.79,322.00) scale(0.01650,-0.01650)" d="M86 0V527H209V0ZM146 639Q109 639 88.5 657.5Q68 676 68 710Q68 742 89.0 762.0Q110 782 146 782Q184 782 204.5 763.5Q225 745 225 710Q225 679 204.0 659.0Q183 639 146 639Z" fill="#F7F5F0"/><path transform="translate(318.12,322.00) scale(0.01650,-0.01650)" d="M72 0V527H192L194 419L171 407Q181 443 210.0 472.5Q239 502 279.0 520.0Q319 538 361 538Q421 538 461.5 514.0Q502 490 522.5 442.0Q543 394 543 322V0H420V313Q420 353 409.0 379.5Q398 406 375.0 418.5Q352 431 319 430Q292 430 269.5 421.5Q247 413 230.5 397.5Q214 382 204.5 362.0Q195 342 195 318V0H134Q116 0 100.5 0.0Q85 0 72 0Z" fill="#F7F5F0"/><path transform="translate(329.67,322.00) scale(0.01650,-0.01650)" d="M129 0V661H252V0ZM25 413V527H367V413Z" fill="#F7F5F0"/><path transform="translate(337.59,322.00) scale(0.01650,-0.01650)" d="M319 -10Q236 -10 172.5 25.0Q109 60 73.5 120.5Q38 181 38 259Q38 321 58.0 372.0Q78 423 113.5 460.5Q149 498 198.5 518.5Q248 539 307 539Q359 539 404.0 519.0Q449 499 482.0 464.5Q515 430 532.5 382.5Q550 335 549 279L548 236H121L98 320H445L429 303V325Q426 356 409.0 379.5Q392 403 365.5 416.5Q339 430 307 430Q258 430 224.5 411.0Q191 392 174.0 356.5Q157 321 157 268Q157 217 178.5 179.0Q200 141 239.5 120.5Q279 100 332 100Q369 100 400.0 112.0Q431 124 467 155L528 70Q501 45 466.5 27.5Q432 10 394.0 0.0Q356 -10 319 -10Z" fill="#F7F5F0"/><path transform="translate(348.76,322.00) scale(0.01650,-0.01650)" d="M73 0V740H197V0Z" fill="#F7F5F0"/><path transform="translate(354.71,322.00) scale(0.01650,-0.01650)" d="M73 0V740H197V0Z" fill="#F7F5F0"/><path transform="translate(360.67,322.00) scale(0.01650,-0.01650)" d="M86 0V527H209V0ZM146 639Q109 639 88.5 657.5Q68 676 68 710Q68 742 89.0 762.0Q110 782 146 782Q184 782 204.5 763.5Q225 745 225 710Q225 679 204.0 659.0Q183 639 146 639Z" fill="#F7F5F0"/><path transform="translate(367.00,322.00) scale(0.01650,-0.01650)" d="M309 -230Q250 -230 191.5 -212.0Q133 -194 97 -165L141 -74Q162 -89 188.0 -100.0Q214 -111 243.5 -117.0Q273 -123 302 -123Q355 -123 390.5 -106.5Q426 -90 444.0 -56.5Q462 -23 462 27V124L480 117Q474 86 447.0 58.0Q420 30 379.0 12.5Q338 -5 295 -5Q220 -5 162.5 30.0Q105 65 71.5 125.5Q38 186 38 265Q38 344 71.0 405.5Q104 467 161.5 502.5Q219 538 291 538Q321 538 349.0 531.0Q377 524 400.5 511.0Q424 498 443.0 482.0Q462 466 474.0 448.0Q486 430 489 413L463 405L465 527H586V36Q586 -28 567.0 -77.0Q548 -126 512.0 -160.5Q476 -195 425.0 -212.5Q374 -230 309 -230ZM314 100Q359 100 393.5 121.0Q428 142 447.0 179.0Q466 216 466 264Q466 313 446.5 350.5Q427 388 393.0 409.0Q359 430 314 430Q269 430 235.0 408.5Q201 387 181.5 349.5Q162 312 162 264Q162 217 181.5 179.5Q201 142 235.0 121.0Q269 100 314 100Z" fill="#F7F5F0"/><path transform="translate(379.33,322.00) scale(0.01650,-0.01650)" d="M319 -10Q236 -10 172.5 25.0Q109 60 73.5 120.5Q38 181 38 259Q38 321 58.0 372.0Q78 423 113.5 460.5Q149 498 198.5 518.5Q248 539 307 539Q359 539 404.0 519.0Q449 499 482.0 464.5Q515 430 532.5 382.5Q550 335 549 279L548 236H121L98 320H445L429 303V325Q426 356 409.0 379.5Q392 403 365.5 416.5Q339 430 307 430Q258 430 224.5 411.0Q191 392 174.0 356.5Q157 321 157 268Q157 217 178.5 179.0Q200 141 239.5 120.5Q279 100 332 100Q369 100 400.0 112.0Q431 124 467 155L528 70Q501 45 466.5 27.5Q432 10 394.0 0.0Q356 -10 319 -10Z" fill="#F7F5F0"/><path transform="translate(390.50,322.00) scale(0.01650,-0.01650)" d="M72 0V527H192L194 419L171 407Q181 443 210.0 472.5Q239 502 279.0 520.0Q319 538 361 538Q421 538 461.5 514.0Q502 490 522.5 442.0Q543 394 543 322V0H420V313Q420 353 409.0 379.5Q398 406 375.0 418.5Q352 431 319 430Q292 430 269.5 421.5Q247 413 230.5 397.5Q214 382 204.5 362.0Q195 342 195 318V0H134Q116 0 100.5 0.0Q85 0 72 0Z" fill="#F7F5F0"/><path transform="translate(402.04,322.00) scale(0.01650,-0.01650)" d="M298 -10Q224 -10 165.0 26.0Q106 62 72.0 124.0Q38 186 38 264Q38 342 72.0 404.0Q106 466 165.0 502.0Q224 538 298 538Q369 538 427.0 511.0Q485 484 517 436L449 354Q434 375 411.0 392.0Q388 409 362.0 419.0Q336 429 310 429Q266 429 231.5 407.5Q197 386 177.0 348.5Q157 311 157 264Q157 217 177.5 180.0Q198 143 233.0 121.0Q268 99 311 99Q337 99 361.5 107.5Q386 116 408.0 132.0Q430 148 449 172L517 89Q483 45 423.5 17.5Q364 -10 298 -10Z" fill="#F7F5F0"/><path transform="translate(412.44,322.00) scale(0.01650,-0.01650)" d="M319 -10Q236 -10 172.5 25.0Q109 60 73.5 120.5Q38 181 38 259Q38 321 58.0 372.0Q78 423 113.5 460.5Q149 498 198.5 518.5Q248 539 307 539Q359 539 404.0 519.0Q449 499 482.0 464.5Q515 430 532.5 382.5Q550 335 549 279L548 236H121L98 320H445L429 303V325Q426 356 409.0 379.5Q392 403 365.5 416.5Q339 430 307 430Q258 430 224.5 411.0Q191 392 174.0 356.5Q157 321 157 268Q157 217 178.5 179.0Q200 141 239.5 120.5Q279 100 332 100Q369 100 400.0 112.0Q431 124 467 155L528 70Q501 45 466.5 27.5Q432 10 394.0 0.0Q356 -10 319 -10Z" fill="#F7F5F0"/></svg>