<svg xmlns="http://www.w3.org/2000/svg" viewBox="0 0 320 320" width="320" height="320" role="img"><rect width="320" height="320" rx="72" fill="#FFFFFF"/><g transform="translate(160,150) scale(0.4398) translate(-256,-256)"><path d="M 78.70967742076999,252.12903226063997 L 58.11612903372895,258.941935486428 L 153.18709677540699,342.55483871200795 C 160.46451613022595,363.7677419377569 150.70967742057496,370.11612903451396 144.51612903349496,381.26451613125795 L 247.63870967837704,368.25806451839 L 245.16129032354502,472.00000000197997 L 266.68387096864797,471.53548387294893 L 261.8838709686609,368.412903228067 L 365.1612903232199,380.800000002227 C 358.8129032264628,367.32903226032806 353.08387096841386,360.206451615186 358.9677419361399,338.68387097008303 L 453.88387096814097,259.71612903481304 L 437.31612903270195,253.52258064773304 C 423.6903225811259,242.99354838969703 443.20000000042796,203.04516129303101 445.987096774614,177.80645161568003 C 445.987096774614,177.80645161568003 390.709677419925,196.85161290595107 387.148387097354,186.78709677694604 L 372.90322580706993,159.69032258347102 L 322.42580645236796,215.12258064783703 C 317.006451613673,216.51612903493003 314.683870968518,214.348387099452 313.290322581425,209.703225809142 L 336.51612903297496,93.883870970746 L 299.66451612984895,114.63225806746401 Q 294.709677420185,116.64516129326502 291.612903226645,111.22580645457005 L 256.00000000093496,40.00000000315005 L 219.45806451716294,114.012903228756 Q 215.12258064620693,117.883870970681 211.71612903331294,115.09677419649499 L 176.25806451728,95.432258067516 L 197.47096774302895,210.16774193817298 C 195.7677419365819,214.81290322848298 191.74193548498,216.051612905899 187.09677419467,213.57419355106697 L 138.787096775446,158.916129035086 C 132.593548388366,168.98064516409102 128.25806451741,185.39354838985298 119.89677419485201,189.10967742210102 C 111.53548387229404,192.82580645434905 83.50967742075704,182.141935486636 64.77419354984005,178.27096774471102 C 71.27741935627404,201.18709677690703 91.09677419493005,239.58709677680298 78.70967742077005,252.12903226064003" fill="#C8402E"/></g><path d="M64,150 L112,150 L126,150 L139,126 L153,182 L167,150 L196,150 L210,134 L223,150 L256,150" fill="none" stroke="#FFFFFF" stroke-width="14" stroke-linecap="round" stroke-linejoin="round"/></svg>